:SAMPLES-PER-SECOND 30
:FULLY-SPECIFIED
:DEGREES
239
root  49.7984 39.2521 3.29878 174.057 50.8426 175.487
RightUpLeg  -7.93088 -6.09895 -6.88786
RightLeg  13.0733 18.4233 3.13487
RightFoot  -2.03695 -0.270743 3.15372
RightToes  5.82063e-011 0 -3.6325e-017
Spine  11.3104 -2.55241 4.91862
Spine1  12.5319 -1.65536 -2.46973
HEad  -8.71417 -0.613075 -4.09427
LeftShoulder1  0.941541 0.403789 -24.1599
LeftArm  22.8407 -30.0885 -60.7436
LeftForeArm  40.9172 -57.7824 -14.1951
LeftHand  -0.522728 -1.67915 8.76827
RightShoulder  0.285414 -2.43612 20.8919
RightArm  -26.9254 15.0076 25.885
RightForeArm  -5.6241 48.4289 13.0611
RightHand  -0.103355 -2.57958 -4.1179
LeftUpLeg  -11.3179 -2.2108 -6.43998
LeftLeg  9.65285 -12.5626 -1.58053
LeftFoot  0.345867 0.540185 -5.18793
LeftToes  1.81573e-012 2.54609e-010 -3.45981e-011
240
root  49.8008 39.4302 3.56377 174.257 45.7505 174.989
RightUpLeg  -6.45895 -9.17651 -7.95015
RightLeg  10.486 16.5841 2.27456
RightFoot  -1.30312 -0.334103 3.70083
RightToes  5.82063e-011 0 -3.6325e-017
Spine  10.9842 -2.83173 4.41282
Spine1  11.9744 -2.1524 -2.00151
HEad  -8.17312 0.41917 -4.4045
LeftShoulder1  0.841881 0.868011 -25.7
LeftArm  23.7535 -24.1739 -58.1515
LeftForeArm  39.9708 -56.5539 -13.5537
LeftHand  -0.543525 -1.86074 8.8864
RightShoulder  0.0951046 -3.13671 22.103
RightArm  -30.2705 8.07906 25.3999
RightForeArm  13.4773 59.4782 18.4683
RightHand  -0.0290684 -5.34365 -6.48788
LeftUpLeg  -10.7641 -1.33954 -6.58956
LeftLeg  10.1628 -5.78474 -0.711375
LeftFoot  -2.40517 0.197878 -2.42753
LeftToes  1.81573e-012 2.54609e-010 -3.45981e-011
241
root  49.8334 39.5754 3.77776 174.732 40.611 174.791
RightUpLeg  -4.85849 -11.345 -9.15952
RightLeg  8.08852 13.774 2.06498
RightFoot  -0.785942 -0.398687 4.26005
RightToes  5.82063e-011 0 -3.6325e-017
Spine  9.75958 -2.92816 4.74766
Spine1  12.432 -2.15983 -2.33241
HEad  -7.74285 2.40714 -5.4541
LeftShoulder1  0.835347 0.944792 -26.5516
LeftArm  24.755 -18.9307 -55.9358
LeftForeArm  37.6939 -52.697 -11.7117
LeftHand  -0.511664 -1.84029 8.41417
RightShoulder  -0.201065 -4.15184 23.6921
RightArm  -33.0157 -0.430656 25.6593
RightForeArm  40.2712 72.144 32.6863
RightHand  0.0308014 -6.3497 -7.1829
LeftUpLeg  -10.0985 -0.054569 -6.10139
LeftLeg  11.1025 -1.96949 -0.220309
LeftFoot  -3.76049 0.176716 -2.33181
LeftToes  1.81573e-012 2.54609e-010 -3.45981e-011
242
root  49.866 39.6432 3.98649 175.517 35.2413 174.747
RightUpLeg  -3.70046 -12.3923 -10.1475
RightLeg  6.50734 9.61958 1.93783
RightFoot  -1.09997 -0.491841 5.40126
RightToes  5.82063e-011 0 -3.6325e-017
Spine  9.28158 -2.98267 4.08683
Spine1  11.4137 -2.65712 -0.998212
HEad  -6.64703 6.27415 -7.77088
LeftShoulder1  0.60389 1.7617 -28.5077
LeftArm  25.9922 -14.683 -52.9653
LeftForeArm  34.4162 -47.0625 -9.54706
LeftHand  -0.450036 -1.6307 7.58187
RightShoulder  -0.347157 -4.63097 23.782
RightArm  -33.7866 -9.44623 27.0627
RightForeArm  86.5049 80.081 74.2856
RightHand  -0.088271 -4.68825 -10.3287
LeftUpLeg  -9.95304 1.84816 -5.1222
LeftLeg  12.8832 -0.700141 -0.0768055
LeftFoot  -4.19573 0.156835 -2.09807
LeftToes  1.81573e-012 2.54609e-010 -3.45981e-011
243
root  49.8258 39.6633 4.14975 176.587 29.7157 174.957
RightUpLeg  -2.7735 -13.1063 -10.8955
RightLeg  5.21473 5.07567 1.92717
RightFoot  -1.39609 -0.55827 6.29882
RightToes  5.82063e-011 0 -3.6325e-017
Spine  8.4194 -3.18671 3.68286
Spine1  10.8497 -3.18269 -0.0029083
HEad  -6.07775 8.85966 -9.47958
LeftShoulder1  0.451403 2.25152 -29.9399
LeftArm  25.1551 -11.0008 -50.1939
LeftForeArm  32.3856 -40.4475 -7.46668
LeftHand  -0.256902 0.158646 5.71734
RightShoulder  -0.459358 -4.9908 23.9957
RightArm  -33.426 -16.9285 28.3887
RightForeArm  138.753 77.7766 128.97
RightHand  -0.4209 -1.93982 -14.3436
LeftUpLeg  -10.5832 4.51658 -3.75187
LeftLeg  15.674 -0.224312 0.160779
LeftFoot  -4.65127 0.137783 -1.85298
LeftToes  1.81573e-012 2.54609e-010 -3.45981e-011
